<?xml version="1.0" encoding="UTF-8"?><svg id="uuid-d399d1d8-9f53-4889-a4a8-20ede39b4c50" xmlns="http://www.w3.org/2000/svg" viewBox="0 0 1920 400"><path d="M155.12,376.91L14.1,24.6h71.78l104.63,271.94h-20.72L272.39,24.6h72.28l-140.52,352.31h-49.03Z" fill="#101010" stroke-width="0"/><path d="M487.22,383.49c-37.4,0-68.16-9.77-92.25-29.32-24.1-19.54-38.67-45.49-43.72-77.84l63.69-15.67c3.7,21.57,12.21,37.75,25.53,48.53,13.31,10.79,29.74,16.17,49.28,16.17,10.44,0,19.79-1.77,28.05-5.31,8.25-3.54,14.82-8.76,19.71-15.67,4.88-6.9,7.33-15.08,7.33-24.52,0-8.76-2.53-16.34-7.58-22.75-5.05-6.4-12.72-12.3-23-17.69-10.28-5.39-23.17-10.95-38.67-16.68-22.24-8.76-40.86-18.11-55.85-28.05-15-9.94-26.21-21.48-33.61-34.63-7.42-13.14-11.12-28.64-11.12-46.5,0-18.87,4.63-35.55,13.9-50.04,9.26-14.49,22.24-25.95,38.92-34.37,16.68-8.42,36.14-12.64,58.38-12.64,23.58,0,44.56,5.48,62.93,16.43,18.36,10.95,33.11,27.22,44.23,48.78l-52.06,31.84c-7.08-12.8-15.42-22.49-25.02-29.06-9.6-6.57-20.31-9.86-32.1-9.86-8.43,0-15.92,1.6-22.49,4.8-6.57,3.21-11.8,7.58-15.67,13.14-3.88,5.56-5.81,12.05-5.81,19.46s2.27,14.66,6.82,20.72,11.96,11.88,22.24,17.44c10.27,5.56,23.67,11.37,40.18,17.44,21.9,8.09,40.18,17.02,54.84,26.79,14.66,9.78,25.86,21.15,33.61,34.12,7.75,12.98,11.63,28.73,11.63,47.26,0,20.9-5.14,39.51-15.42,55.85-10.28,16.35-24.52,29.06-42.71,38.16-18.2,9.1-39.6,13.65-64.19,13.65Z" fill="#101010" stroke-width="0"/><path d="M657.56,376.91v-66.72h66.72v66.72h-66.72Z" fill="#101010" stroke-width="0"/><path d="M790.88,376.91V26.44h32.58v350.47h-32.58ZM820,376.91v-30.36h51.83c41.3,0,72.19-11.64,92.68-34.92,20.49-23.28,30.73-58.29,30.73-105.02,0-50.02-10.24-87.49-30.73-112.42-20.49-24.93-51.38-37.39-92.68-37.39h-50.84l-5.92-30.36h56.77c104.32,0,156.48,60.06,156.48,180.17,0,113.53-52.16,170.3-156.48,170.3h-51.83Z" fill="#000" stroke-width="0"/><path d="M1188.8,381.85c-18.76,0-36.49-1.48-53.19-4.44-16.7-2.96-32.37-7.32-47.02-13.08l4.44-32.58c17.28,6.58,34.22,11.6,50.84,15.06,16.62,3.46,32.91,5.18,48.87,5.18,27.97,0,48.91-4.85,62.81-14.56,13.9-9.71,20.86-24.43,20.86-44.18,0-25.17-12.26-44.01-36.77-56.52l-83.18-42.7c-19.09-9.54-33.61-20.94-43.56-34.18-9.96-13.24-14.93-29.49-14.93-48.74,0-29.29,8.76-51.54,26.29-66.76,17.52-15.22,43.32-22.83,77.38-22.83,22.21,0,42.24,3.42,60.1,10.24,17.85,6.83,34.35,17.48,49.48,31.96l-22.21,22.46c-14.97-11.85-29.58-20.61-43.81-26.29-14.23-5.68-28.67-8.51-43.32-8.51-23.2,0-40.77,4.9-52.69,14.68-11.93,9.79-17.89,24.56-17.89,44.3,0,12.51,3.21,22.91,9.63,31.22,6.42,8.31,15.88,15.67,28.38,22.09l75.77,38.26c21.55,10.86,37.72,23.65,48.5,38.38,10.78,14.73,16.17,32.29,16.17,52.69,0,29.62-10.04,51.83-30.11,66.64-20.08,14.81-50.35,22.21-90.83,22.21Z" fill="#000" stroke-width="0"/><path d="M1523.04,381.85c-49.36,0-87.21-15.51-113.53-46.52-26.33-31.01-39.49-75.73-39.49-134.14s13.2-101.32,39.61-132.66c26.41-31.35,63.55-47.02,111.44-47.02,23.2,0,43.64,3.5,61.33,10.49,17.69,7,31.14,16.91,40.35,29.74l-23.45,23.2c-8.89-10.69-19.87-18.96-32.95-24.8-13.08-5.84-27.19-8.76-42.33-8.76-38.18,0-67.79,12.88-88.85,38.63-21.06,25.75-31.59,61.99-31.59,108.72,0,49.36,10.82,87.25,32.46,113.66,21.63,26.41,52.61,39.61,92.92,39.61,15.46,0,29.12-1.52,40.97-4.57,11.85-3.04,21.55-5.63,29.12-7.77l15.8,27.4c-6.91,2.14-18.6,5.14-35.05,9.01-16.46,3.86-35.38,5.8-56.77,5.8ZM1500.33,239.93v-30.11h113.04v30.11h-113.04ZM1583.26,367.04v-157.22h31.59v157.22h-31.59Z" fill="#000" stroke-width="0"/><path d="M1690.68,376.91V26.44h32.58v350.47h-32.58ZM1857.53,376.91l-131.3-308.02h-17.28V26.44h30.36l131.3,308.02h10.86v42.45h-23.94ZM1873.32,376.91V26.44h32.58v350.47h-32.58Z" fill="#000" stroke-width="0"/></svg>