<?xml version="1.0" encoding="UTF-8"?><svg id="Capa_1" xmlns="http://www.w3.org/2000/svg" viewBox="0 0 1920 400"><path d="M211.27,364.4L82.94,43.82h65.31l95.21,247.45h-18.86l93.37-247.45h65.77l-127.87,320.58h-44.61Z" fill="#101010" stroke-width="0"/><path d="M513.45,370.38c-34.04,0-62.02-8.89-83.94-26.68-21.93-17.78-35.19-41.4-39.79-70.83l57.95-14.26c3.37,19.63,11.11,34.35,23.23,44.16,12.11,9.82,27.06,14.72,44.84,14.72,9.5,0,18.01-1.61,25.53-4.83,7.51-3.22,13.49-7.97,17.94-14.26,4.44-6.28,6.67-13.72,6.67-22.31,0-7.97-2.3-14.87-6.9-20.7-4.6-5.82-11.58-11.19-20.93-16.1-9.36-4.9-21.09-9.96-35.19-15.18-20.24-7.97-37.18-16.48-50.82-25.53-13.65-9.04-23.85-19.55-30.59-31.51-6.75-11.96-10.12-26.06-10.12-42.32,0-17.17,4.21-32.35,12.65-45.53,8.43-13.18,20.24-23.61,35.42-31.28,15.18-7.66,32.89-11.5,53.12-11.5,21.46,0,40.55,4.99,57.26,14.95,16.71,9.97,30.13,24.77,40.25,44.38l-47.38,28.98c-6.44-11.65-14.03-20.47-22.77-26.45-8.74-5.98-18.48-8.97-29.21-8.97-7.67,0-14.49,1.46-20.47,4.37-5.98,2.92-10.74,6.9-14.26,11.96-3.53,5.06-5.29,10.97-5.29,17.71s2.07,13.34,6.21,18.86,10.88,10.81,20.24,15.87c9.35,5.06,21.54,10.35,36.57,15.87,19.93,7.36,36.57,15.49,49.9,24.38,13.34,8.9,23.53,19.25,30.59,31.05,7.05,11.81,10.58,26.14,10.58,43,0,19.02-4.68,35.96-14.03,50.82-9.36,14.88-22.31,26.45-38.87,34.73s-36.03,12.42-58.41,12.42Z" fill="#101010" stroke-width="0"/><path d="M668.45,364.4v-60.71h60.71v60.71h-60.71Z" fill="#101010" stroke-width="0"/><path d="M789.76,364.4V45.49h29.65v318.91h-29.65ZM816.26,364.4v-27.62h47.16c37.58,0,65.69-10.59,84.33-31.78,18.64-21.18,27.96-53.04,27.96-95.56,0-45.51-9.32-79.61-27.96-102.3-18.64-22.68-46.75-34.02-84.33-34.02h-46.26l-5.39-27.62h51.65c94.92,0,142.39,54.65,142.39,163.94,0,103.31-47.46,154.96-142.39,154.96h-47.16Z" fill="#000" stroke-width="0"/><path d="M1151.84,368.89c-17.07,0-33.2-1.35-48.4-4.04-15.2-2.7-29.46-6.66-42.78-11.9l4.04-29.64c15.72,5.99,31.14,10.56,46.26,13.7,15.12,3.14,29.94,4.72,44.47,4.72,25.45,0,44.5-4.42,57.16-13.25,12.65-8.83,18.98-22.23,18.98-40.2,0-22.91-11.16-40.05-33.46-51.43l-75.68-38.85c-17.37-8.68-30.58-19.05-39.64-31.11-9.06-12.05-13.59-26.84-13.59-44.35,0-26.65,7.97-46.9,23.92-60.75,15.95-13.85,39.42-20.77,70.41-20.77,20.21,0,38.44,3.11,54.69,9.32,16.24,6.21,31.25,15.91,45.03,29.08l-20.21,20.44c-13.63-10.78-26.92-18.75-39.86-23.92-12.95-5.17-26.09-7.75-39.41-7.75-21.11,0-37.09,4.46-47.95,13.36-10.86,8.91-16.28,22.35-16.28,40.31,0,11.38,2.92,20.85,8.76,28.41,5.84,7.56,14.45,14.26,25.83,20.1l68.95,34.81c19.61,9.88,34.32,21.52,44.13,34.92,9.8,13.4,14.71,29.38,14.71,47.95,0,26.95-9.13,47.16-27.4,60.64-18.27,13.47-45.82,20.21-82.65,20.21Z" fill="#000" stroke-width="0"/><path d="M1455.99,368.89c-44.92,0-79.36-14.11-103.31-42.33-23.96-28.22-35.93-68.91-35.93-122.06s12.02-92.19,36.05-120.71,57.83-42.78,101.4-42.78c21.11,0,39.71,3.18,55.81,9.54,16.09,6.37,28.33,15.38,36.72,27.06l-21.34,21.11c-8.08-9.73-18.08-17.25-29.98-22.57-11.9-5.31-24.74-7.97-38.52-7.97-34.74,0-61.69,11.72-80.85,35.15-19.17,23.43-28.75,56.41-28.75,98.93,0,44.92,9.84,79.39,29.53,103.42,19.69,24.03,47.87,36.05,84.56,36.05,14.07,0,26.5-1.38,37.28-4.16,10.78-2.77,19.61-5.13,26.5-7.07l14.37,24.93c-6.29,1.95-16.92,4.68-31.89,8.2-14.97,3.52-32.19,5.28-51.65,5.28ZM1435.32,239.76v-27.4h102.86v27.4h-102.86ZM1510.78,355.42v-143.06h28.75v143.06h-28.75Z" fill="#000" stroke-width="0"/><path d="M1608.53,364.4V45.49h29.64v318.91h-29.64ZM1760.35,364.4l-119.48-280.28h-15.72v-38.63h27.62l119.48,280.28h9.88v38.63h-21.78ZM1774.72,364.4V45.49h29.65v318.91h-29.65Z" fill="#000" stroke-width="0"/><text transform="translate(14.87 -151.99)" font-size="459.95"><tspan x="0" y="0" fill="#101010" font-family="HankenGrotesk-Bold, &apos;Hanken Grotesk&apos;" font-weight="700" letter-spacing="-.02em">V</tspan><tspan x="298.05" y="0" fill="#101010" font-family="HankenGrotesk-Bold, &apos;Hanken Grotesk&apos;" font-weight="700" letter-spacing="0em">S.</tspan><tspan x="677.5" y="0" fill="#000" font-family="CascadiaCodeRoman-Light, &apos;Cascadia Code&apos;" font-variation-settings="&apos;wght&apos; 300" font-weight="300" letter-spacing="0em">DSGN</tspan></text></svg>