<?xml version="1.0" encoding="UTF-8"?><svg id="uuid-8a899b0c-8d58-400c-9799-3df621949277" xmlns="http://www.w3.org/2000/svg" viewBox="0 0 1920 400"><path d="M917.36,343.68c-10.54-11.07-10.54-29.29,0-40.36,10.54-11.07,27.89-11.07,38.43,0,10.54,11.07,10.54,29.29,0,40.36-10.54,11.07-27.89,11.07-38.43,0Z" fill="#101010" stroke-width="0"/><path d="M104.35,349.03L18.18,54.23h27.47l77.88,272.38h2.37L203.78,54.23h27.47l-86.18,294.8h-40.72Z" fill="#000" stroke-width="0"/><path d="M249.61,349.03V54.23h26.09v294.8h-26.09ZM249.61,349.03v-25.54h179.47v25.54h-179.47Z" fill="#000" stroke-width="0"/><path d="M447.44,349.03V54.23h26.09v294.8h-26.09ZM470.17,230.07v-25.74h75.9c17.79,0,31.63-5.19,41.51-15.57,9.88-10.38,14.82-24.98,14.82-43.8,0-20.76-4.94-36.81-14.82-48.16-9.88-11.35-23.72-17.02-41.51-17.02h-75.11l-4.74-25.54h79.85c26.35,0,46.75,7.51,61.18,22.53,14.43,15.02,21.64,36.37,21.64,64.05s-7.21,50.17-21.64,65.81c-14.43,15.64-34.82,23.46-61.18,23.46h-75.9ZM608.53,349.03l-67.6-138.68h29.25l68.98,138.68h-30.64Z" fill="#000" stroke-width="0"/><path d="M657.52,349.03l87.96-294.8h37.16l87.96,294.8h-27.08l-78.27-270.93h-2.37l-78.27,270.93h-27.08ZM691.91,270.35v-25.74h142.31v25.74h-142.31Z" fill="#000" stroke-width="0"/><path d="M1088.73,349.03c-15.84,0-31.21-1.41-46.13-4.23-14.92-2.82-28.27-6.77-40.04-11.85l7.07-55.67c14.39,6.32,28.69,11.2,42.89,14.64,14.2,3.44,27.32,5.15,39.36,5.15,14,0,24.73-2.61,32.19-7.83,7.46-5.22,11.19-12.71,11.19-22.47,0-12.78-7.66-22.95-22.97-30.51l-40.04-20.41c-19.76-10.17-35.07-22.75-45.93-37.73-10.86-14.98-16.29-31.54-16.29-49.69,0-25.57,8.05-45.36,24.14-59.38,16.1-14.02,38.87-21.03,68.31-21.03,17.14,0,33.4,3.16,48.78,9.48,15.38,6.32,29.02,15.46,40.93,27.42l-35.73,43.09c-9.03-9.07-18.13-16.05-27.29-20.93-9.16-4.88-17.99-7.32-26.5-7.32-11.52,0-20.48,2.58-26.89,7.73-6.41,5.15-9.62,12.61-9.62,22.37,0,6.46,2.26,12.58,6.77,18.35,4.51,5.77,10.96,11,19.34,15.67l37.69,20.41c19.63,10.72,34.77,23.23,45.44,37.52,10.66,14.3,16,29.62,16,45.98,0,25.98-8.9,46.01-26.7,60.1-17.8,14.09-43.12,21.13-75.97,21.13Z" fill="#000" stroke-width="0"/><path d="M1242.13,349.03l-29.84-292.77h51.04l17.08,244.31h5.5l20.81-170.09h45.93l-16.49,56.29h-7.85l-15.7,162.26h-70.47ZM1346.36,349.03l-15.7-162.26h-7.85l-16.1-56.29h45.93l20.41,170.09h5.5l17.08-244.31h51.04l-29.84,292.77h-70.47Z" fill="#000" stroke-width="0"/><path d="M1466.98,349.03V56.27h51.82v292.77h-51.82ZM1516.05,349.03v-51.96h21.79c25.52,0,44.66-7.66,57.42-22.99,12.76-15.32,19.14-37.76,19.14-67.32,0-32.44-6.38-56.97-19.14-73.6-12.76-16.63-31.9-24.95-57.42-24.95h-21l-4.71-51.96h25.71c87.28,0,130.93,50.17,130.93,150.51,0,94.84-43.64,142.26-130.93,142.26h-21.79Z" fill="#000" stroke-width="0"/><path d="M1768.78,261.62l-93.24-205.35h57.91l56.53,136.07h3.53l56.53-136.07h57.91l-93.24,205.35h-45.93ZM1765.83,349.03v-144.32h51.82v144.32h-51.82Z" fill="#000" stroke-width="0"/></svg>