<?xml version="1.0" encoding="UTF-8"?><svg id="uuid-40aa83bc-95bb-4e99-8fe1-2192cbdd4e65" xmlns="http://www.w3.org/2000/svg" viewBox="0 0 1920 400"><path d="M965.9,325.09c-12.45-12.45-12.45-32.95,0-45.4,12.45-12.45,32.95-12.45,45.4,0,12.45,12.45,12.45,32.95,0,45.4-12.45,12.45-32.95,12.45-45.4,0Z" fill="#101010" stroke-width="0"/><path d="M123.92,326.92L20.22,67.85h52.78l76.94,199.97h-15.24l75.45-199.97h53.15l-103.33,259.07h-36.05Z" fill="#101010" stroke-width="0"/><path d="M293.42,326.92V67.85h47.95v215.96h110.39v43.12h-158.34Z" fill="#101010" stroke-width="0"/><path d="M482.61,326.92V67.85h85.49c21.06,0,38.04,3.04,50.92,9.11,12.88,6.07,22.36,14.75,28.43,26.02,6.07,11.28,9.11,24.6,9.11,39.96,0,23.79-6.75,42.19-20.26,55.2-13.51,13.01-32.77,20.26-57.8,21.75-5.7.25-11.52.37-17.47.37h-30.48v106.68h-47.95ZM530.56,177.13h32.71c8.18,0,15.67-.93,22.49-2.79,6.81-1.86,12.32-5.2,16.54-10.04,4.21-4.83,6.32-11.71,6.32-20.63s-2.11-16.1-6.32-20.81c-4.22-4.7-9.73-7.86-16.54-9.48-6.82-1.61-14.31-2.42-22.49-2.42h-32.71v66.16ZM623.48,326.92l-65.05-112.25,49.06-5.95,71.37,118.2h-55.38Z" fill="#101010" stroke-width="0"/><path d="M690.01,326.92l104.07-259.07h36.05l104.07,259.07h-52.41l-69.14-188.08-70.25,188.08h-52.41ZM758.41,276.37l14.87-43.12h78.06l15.61,43.12h-108.54Z" fill="#101010" stroke-width="0"/><path d="M1130.48,330.55c-13.79,0-26.83-1.09-39.11-3.27-12.28-2.18-23.81-5.38-34.57-9.62l3.27-23.96c12.71,4.84,25.17,8.53,37.39,11.07,12.22,2.54,24.2,3.81,35.94,3.81,20.57,0,35.96-3.57,46.19-10.71,10.22-7.14,15.34-17.97,15.34-32.49,0-18.51-9.01-32.37-27.04-41.56l-61.16-31.4c-14.04-7.02-24.71-15.4-32.03-25.14-7.32-9.74-10.98-21.69-10.98-35.84,0-21.54,6.44-37.9,19.33-49.09,12.89-11.19,31.85-16.79,56.9-16.79,16.33,0,31.06,2.51,44.19,7.53,13.13,5.02,25.26,12.86,36.39,23.5l-16.33,16.52c-11.01-8.71-21.75-15.15-32.21-19.33-10.47-4.17-21.08-6.26-31.85-6.26-17.06,0-29.98,3.6-38.75,10.8-8.77,7.2-13.16,18.06-13.16,32.58,0,9.2,2.36,16.85,7.08,22.96,4.72,6.11,11.67,11.52,20.87,16.24l55.72,28.13c15.85,7.99,27.74,17.39,35.66,28.22,7.92,10.83,11.89,23.75,11.89,38.75,0,21.78-7.38,38.11-22.14,49-14.76,10.89-37.02,16.33-66.79,16.33Z" fill="#000" stroke-width="0"/><path d="M1291.69,326.92l-35.03-257.72h24.32l30.31,238.3h3.63l27.95-172.96h32.67l-10.34,20.51h-7.26l-26.32,171.87h-39.93ZM1386.43,326.92l-26.32-171.87h-7.26l-9.98-20.51h32.67l27.59,172.96h3.63l30.31-238.3h24.32l-35.03,257.72h-39.93Z" fill="#000" stroke-width="0"/><path d="M1496.82,326.92V69.2h23.96v257.72h-23.96ZM1518.24,326.92v-22.32h38.11c30.37,0,53.09-8.56,68.15-25.68,15.06-17.12,22.6-42.86,22.6-77.22,0-36.78-7.53-64.34-22.6-82.67-15.06-18.33-37.78-27.5-68.15-27.5h-37.39l-4.36-22.32h41.74c76.71,0,115.07,44.17,115.07,132.49,0,83.49-38.36,125.23-115.07,125.23h-38.11Z" fill="#000" stroke-width="0"/><path d="M1790.16,242.16l-93.29-172.96h26.5l73.87,141.56h2.18l73.87-141.56h26.5l-93.29,172.96h-16.33ZM1786.35,326.92v-113.8h23.96v113.8h-23.96Z" fill="#000" stroke-width="0"/></svg>